<?xml version="1.0" encoding="utf-8"?>
<!-- Designed by Vexels.com - 2016 All Rights Reserved - https://vexels.com/terms-and-conditions/  -->

<svg version="1.0" id="Capa_1" xmlns="http://www.w3.org/2000/svg" xmlns:xlink="http://www.w3.org/1999/xlink" x="0px" y="0px"
	 width="1200px" height="1200px" viewBox="0 0 1200 1200" enable-background="new 0 0 1200 1200" xml:space="preserve">
<g>
	<path fill="#008B89" d="M902.46,347.291C840.873,102.533,601.536,99.927,599.283,100.001l-5.007,0.832
		c-42.399,2.274-239.825,24.85-296.654,246.222c-0.677,3.711-15.934,92.122,34.137,205.952
		c9.837,18.659,59.422,112.416,69.465,125.759c1.031,1.538,104.133,155.764,159.636,304.517c3.388,5.435,7.659,5.509,10.309,3.94
		c4.109-2.46,5.729-10.058,1.414-17.525c-56.522-147.717-157.31-298.51-158.415-300.145c-7.172-9.528-39.792-69.841-67.919-123.107
		l-0.412-0.736c-47.244-107.505-33.268-191.97-32.709-195.238c57.022-222.086,263.564-233.411,287.508-234.03l2.196-0.501
		c23.282,1.016,229.058,16.309,284.135,234.78c0.59,3.563,14.198,88.492-33.134,194.951c-0.575,1.097-58.862,110.524-69.275,124.314
		c-6.156,8.888-151.33,219.575-191.858,386.281l0.309,0.074c-3.535,7.216-5.581,25.323-5.552,25.52
		c1.208,9.205,2.916,18.137,8.924,18.137c0.25,0,0.516-0.015,0.796-0.051l2.708-0.332l4.227-21.391
		c32.87-166.587,191.801-396.757,193.316-398.923c11.414-15.109,69.982-125.346,70.674-126.671
		c50.615-113.793,34.622-204.023,34.446-204.899L902.46,347.291z"/>
	<path fill="#008B89" d="M705.3,406.227c0-56.109-45.712-101.753-101.895-101.753c-56.109,0-101.745,45.644-101.745,101.753
		c0,56.175,45.637,101.872,101.745,101.872C659.588,508.099,705.3,462.402,705.3,406.227z M517.55,406.227
		c0-47.346,38.51-85.863,85.855-85.863c47.421,0,86.005,38.517,86.005,85.863c0,47.412-38.584,85.982-86.005,85.982
		C556.06,492.209,517.55,453.64,517.55,406.227z"/>
</g>
</svg>
